<svg version="1.1" id="Layer_1" xmlns="http://www.w3.org/2000/svg" xmlns:xlink="http://www.w3.org/1999/xlink" x="0px" y="0px"
	 width="100%" viewBox="0 0 500 500" enable-background="new 0 0 500 500" xml:space="preserve">
<path fill="#000000" opacity="1.000000" stroke="none" 
	d="
M283.000000,501.000000 
	C188.666687,501.000000 94.833382,501.000000 1.000050,501.000000 
	C1.000034,334.333405 1.000034,167.666794 1.000017,1.000140 
	C167.666565,1.000093 334.333130,1.000093 500.999756,1.000047 
	C500.999847,167.666519 500.999847,334.333038 500.999939,500.999786 
	C428.500000,501.000000 356.000000,501.000000 283.000000,501.000000 
M267.642029,316.999512 
	C275.754761,316.999512 283.867493,316.999512 292.528137,316.999512 
	C292.528137,297.686707 292.528137,278.961517 292.528137,260.377716 
	C304.310120,260.377716 315.525787,260.377716 327.094849,260.377716 
	C327.094849,279.391541 327.094849,297.981628 327.094849,316.606476 
	C336.998718,316.606476 346.530182,316.606476 355.911011,316.606476 
	C355.911011,271.156921 355.911011,226.101318 355.911011,180.960190 
	C346.148926,180.960190 336.754974,180.960190 326.856262,180.960190 
	C326.856262,199.339447 326.856262,217.405212 326.856262,235.563309 
	C315.145966,235.563309 303.948364,235.563309 292.174194,235.563309 
	C292.174194,217.149399 292.174194,199.094620 292.174194,180.949677 
	C282.193878,180.949677 272.797546,180.949677 263.510498,180.949677 
	C263.274109,181.554642 263.054718,181.854141 263.054413,182.153824 
	C263.012604,226.120514 263.013763,270.087280 262.902344,314.053772 
	C262.894440,317.167084 264.558197,317.128815 267.642029,316.999512 
M204.526199,318.074341 
	C231.009354,313.425751 245.686447,293.405853 241.906128,267.087250 
	C239.687134,251.638657 228.010406,240.721191 210.029114,237.029388 
	C200.931808,235.161606 191.767105,233.433548 182.876007,230.816299 
	C176.949020,229.071594 174.750397,223.962372 174.885666,217.811554 
	C175.021942,211.613754 177.206650,206.595337 183.122314,204.206573 
	C186.287888,202.928314 189.873947,202.279221 193.302643,202.139160 
	C205.418533,201.644257 215.729752,206.050049 224.332047,214.899216 
	C229.963409,208.599396 235.350876,202.572418 241.447388,195.752228 
	C236.199738,192.040955 231.661087,188.055420 226.467590,185.307495 
	C212.403198,177.865921 197.229752,176.959167 181.744064,179.081589 
	C159.656250,182.108871 146.134064,196.473480 145.238907,217.780029 
	C144.325928,239.511337 155.698990,253.539001 178.268982,258.334473 
	C186.066681,259.991241 193.976364,261.145874 201.731430,262.969818 
	C207.019241,264.213470 210.958008,267.308807 212.214691,273.113007 
	C214.719742,284.682983 208.308426,293.803741 196.522995,295.059479 
	C182.833923,296.518097 170.892822,292.516083 160.687073,283.302917 
	C159.382919,282.125610 158.129410,280.892151 156.709763,279.549805 
	C150.874481,286.000519 145.418640,292.031799 139.707535,298.345245 
	C157.281052,317.889160 179.415985,321.420410 204.526199,318.074341 
M353.251678,342.034729 
	C353.988831,340.942200 354.725983,339.849670 355.958923,338.022339 
	C352.567474,338.022339 350.747314,338.022339 348.927185,338.022339 
	C299.439758,338.022339 249.952332,338.022339 200.464905,338.022339 
	C183.802475,338.022369 167.139877,338.057922 150.477737,337.988159 
	C147.630478,337.976227 145.875061,338.407196 147.505188,342.037689 
	C215.712631,342.037689 284.004578,342.037689 353.251678,342.034729 
M215.228989,357.662231 
	C214.405960,359.263855 213.259995,360.781982 212.820084,362.482697 
	C211.462753,367.730316 214.191345,372.691193 218.895447,374.003601 
	C224.196365,375.482574 228.104889,373.471466 230.606644,367.040161 
	C228.175201,368.017181 226.440735,368.521545 224.897675,369.372864 
	C221.306259,371.354340 218.889755,370.234039 218.167404,365.875702 
	C220.361923,365.875702 222.518997,365.875702 224.676056,365.875702 
	C226.743225,365.875702 228.810379,365.875702 230.877502,365.875702 
	C230.659546,356.017914 224.178177,352.577057 215.228989,357.662231 
M192.864655,359.479950 
	C192.383591,361.059143 191.623764,362.612213 191.472977,364.222382 
	C190.990509,369.373779 194.251083,373.477570 199.163528,374.209442 
	C204.401657,374.989838 207.735580,372.882355 208.967377,368.006317 
	C205.211029,365.924347 199.731247,375.156342 196.492035,365.774963 
	C201.284134,365.774963 205.551834,365.774963 209.942154,365.774963 
	C210.241669,361.139038 208.906082,357.742340 204.874252,355.996277 
	C200.387222,354.053040 196.416611,355.002502 192.864655,359.479950 
M260.269440,371.031677 
	C260.227325,367.705139 260.377289,364.362274 260.096588,361.055969 
	C259.707611,356.474030 256.551483,354.316498 252.104324,355.325348 
	C251.102203,355.552643 250.140015,355.955963 249.037323,356.318420 
	C248.896194,353.648895 248.776108,351.377289 248.646622,348.928131 
	C247.008835,349.000916 245.742111,349.057190 244.341736,349.119446 
	C244.341736,357.491028 244.341736,365.574738 244.341736,374.007416 
	C245.950546,373.907379 247.316345,373.822418 248.896927,373.724121 
	C248.896927,370.185303 248.474243,366.959900 249.056564,363.927490 
	C249.402100,362.128113 251.331985,360.632965 252.549530,359.001038 
	C253.631989,360.553040 255.394516,362.000793 255.651794,363.679321 
	C256.148895,366.922455 255.796921,370.295776 255.796921,375.213135 
	C257.846527,373.694580 259.057098,372.797668 260.269440,371.031677 
M279.758881,372.943542 
	C279.728760,369.282745 279.880310,365.609009 279.621307,361.964478 
	C279.315460,357.660706 276.691437,355.260773 272.440887,355.175476 
	C268.358856,355.093536 265.086853,356.550293 264.247284,360.926910 
	C267.835388,364.254028 271.611115,354.560486 275.159241,361.750580 
	C272.374451,362.471191 269.458435,362.572784 267.398682,363.952606 
	C265.545197,365.194244 263.340027,368.077301 263.658936,369.797150 
	C263.989716,371.581146 267.004425,373.732910 269.135132,374.117218 
	C272.422272,374.710114 275.956146,373.934845 279.758881,372.943542 
M321.946625,365.386841 
	C319.374176,370.629578 321.140503,374.283875 326.437683,374.282166 
	C329.849976,374.281067 333.262146,373.807037 336.946472,373.524078 
	C336.946472,369.970825 337.014374,366.339874 336.928711,362.712585 
	C336.829285,358.504150 334.777100,355.736298 330.475220,355.257446 
	C326.118347,354.772522 322.781189,356.234772 321.873199,361.434662 
	C323.784027,361.144226 325.349640,359.905823 327.080353,359.598969 
	C328.683075,359.314850 330.462433,360.027252 332.164001,360.300781 
	C332.035797,360.776947 331.907593,361.253113 331.779358,361.729248 
	C328.680603,362.777771 325.581818,363.826294 321.946625,365.386841 
M179.030228,358.845734 
	C177.088745,355.425293 173.805939,354.394562 170.475952,355.427399 
	C168.042191,356.182251 166.064224,358.406677 163.781036,360.049500 
	C167.997208,364.392334 171.880142,354.540070 175.315430,361.755524 
	C172.520905,362.491302 169.940903,363.029572 167.459122,363.861053 
	C164.596573,364.820129 162.604156,367.032562 163.886337,369.914886 
	C164.710556,371.767700 167.114944,373.804382 169.051086,374.081482 
	C172.521652,374.578186 176.173141,373.810669 180.239975,373.538727 
	C179.927780,368.839630 179.621353,364.227448 179.030228,358.845734 
M349.519684,355.118408 
	C346.693542,355.443237 343.867371,355.768036 340.978363,356.100098 
	C340.978363,361.983093 340.978363,367.870331 340.978363,374.008453 
	C342.506927,373.937439 343.776886,373.878448 345.379944,373.803986 
	C345.379944,369.925568 345.025787,366.226471 345.558990,362.660034 
	C345.764496,361.285400 347.986816,360.212311 349.290253,359.001831 
	C350.234497,360.308624 351.841766,361.543213 351.993378,362.936249 
	C352.381805,366.505280 352.123016,370.144745 352.123016,374.131866 
	C354.050873,373.935791 355.411865,373.797363 356.842926,373.651825 
	C356.842926,369.572876 356.936127,365.926270 356.818268,362.286499 
	C356.684143,358.143860 354.987122,355.249908 349.519684,355.118408 
M290.267456,366.234924 
	C291.542419,367.344330 292.817352,368.453735 294.092316,369.563141 
	C292.439880,369.751495 290.790375,369.999725 289.132690,370.081696 
	C288.766052,370.099823 288.413208,369.422089 287.980347,369.250244 
	C286.422211,368.631500 284.832550,368.092041 282.309052,367.181305 
	C284.413391,373.439850 288.128906,374.508698 292.584564,374.220306 
	C295.832397,374.010101 298.466034,372.768890 298.998474,369.196869 
	C299.577209,365.314697 296.792175,364.067291 293.794098,363.115906 
	C291.765900,362.472351 289.738312,361.826874 287.314850,361.056519 
	C291.692413,355.466370 294.501953,363.893066 298.344940,360.856567 
	C297.058716,356.170471 293.489471,354.496613 289.349548,355.380188 
	C287.098328,355.860626 284.062195,358.240662 283.589172,360.277039 
	C282.693878,364.131531 286.192902,365.416504 290.267456,366.234924 
M303.110565,371.285126 
	C305.465729,372.299225 307.754211,373.915558 310.191803,374.185608 
	C313.803314,374.585693 317.409271,373.558380 317.974274,369.111084 
	C318.541718,364.644012 315.072510,363.788605 311.731354,362.912201 
	C310.010406,362.460785 308.380219,361.663330 306.709015,361.022247 
	C306.936676,360.308502 307.164337,359.594757 307.391998,358.881012 
	C310.566437,359.790283 313.740906,360.699524 318.201538,361.977203 
	C316.825592,359.600159 316.389587,357.781494 315.530029,357.552460 
	C312.368896,356.710114 309.000916,355.804871 305.849762,356.159210 
	C304.505493,356.310333 302.147308,360.564697 302.588165,361.129578 
	C304.227509,363.230042 306.831848,364.581390 309.093445,366.186523 
	C309.347229,366.366638 309.809113,366.276855 310.031555,366.473755 
	C311.095184,367.414948 312.109467,368.411835 313.141296,369.388885 
	C311.526062,369.659821 309.859009,370.297241 308.313049,370.078491 
	C307.200714,369.921143 306.341461,368.163330 305.206177,367.936768 
	C303.396637,367.575623 300.542816,367.079468 303.110565,371.285126 
M154.812897,355.384186 
	C153.825348,355.295166 152.824234,355.056458 151.852737,355.144501 
	C148.649719,355.434845 145.789185,356.600311 145.403717,360.175446 
	C144.997040,363.947144 147.856201,365.221313 150.937973,366.004242 
	C152.221970,366.330414 153.561188,366.533813 154.762131,367.054199 
	C155.402740,367.331787 156.338364,368.400177 156.205978,368.703156 
	C155.863480,369.487000 154.928589,370.645020 154.361908,370.575775 
	C152.835144,370.389252 151.383743,369.620758 149.889832,369.120819 
	C148.320099,368.595520 146.735764,368.113861 144.192795,367.306915 
	C147.169754,373.277954 149.765106,374.717468 154.741272,374.216553 
	C158.000854,373.888458 160.579727,372.640686 161.010437,369.038452 
	C161.477951,365.128418 158.616714,364.009918 155.635178,363.081573 
	C153.646255,362.462341 151.672211,361.795258 149.691513,361.149597 
	C149.926086,360.397827 150.160675,359.646057 150.395248,358.894287 
	C153.567505,359.812073 156.739761,360.729889 159.912018,361.647675 
	C160.198669,361.123383 160.485321,360.599121 160.771973,360.074829 
	C159.029739,358.592010 157.287506,357.109161 154.812897,355.384186 
M188.207031,360.027527 
	C188.310516,357.068207 188.496933,354.014404 183.792542,356.254456 
	C183.792542,361.785095 183.913147,367.259094 183.708725,372.720947 
	C183.656876,374.106354 182.606033,375.470673 181.946976,376.811646 
	C181.463348,377.795654 180.869919,378.725708 180.325424,379.679810 
	C181.311310,380.046387 182.299408,380.728058 183.282684,380.721130 
	C186.382584,380.699310 188.253296,379.272095 188.208725,375.860291 
	C188.143661,370.878784 188.201508,365.895691 188.207031,360.027527 
M234.043365,353.669952 
	C234.043350,358.315765 234.016495,362.961792 234.050018,367.607361 
	C234.093307,373.603485 235.078598,374.413513 239.969635,373.690094 
	C239.402176,365.426453 238.843018,357.283813 238.288345,349.206482 
	C234.960464,348.136841 233.518906,349.269928 234.043365,353.669952 
z"/>
<path fill="#FF1616" opacity="1.000000" stroke="none" 
	d="
M267.159973,316.999329 
	C264.558197,317.128815 262.894440,317.167084 262.902344,314.053772 
	C263.013763,270.087280 263.012604,226.120514 263.054413,182.153824 
	C263.054718,181.854141 263.274109,181.554642 263.510498,180.949677 
	C272.797546,180.949677 282.193878,180.949677 292.174194,180.949677 
	C292.174194,199.094620 292.174194,217.149399 292.174194,235.563309 
	C303.948364,235.563309 315.145966,235.563309 326.856262,235.563309 
	C326.856262,217.405212 326.856262,199.339447 326.856262,180.960190 
	C336.754974,180.960190 346.148926,180.960190 355.911011,180.960190 
	C355.911011,226.101318 355.911011,271.156921 355.911011,316.606476 
	C346.530182,316.606476 336.998718,316.606476 327.094849,316.606476 
	C327.094849,297.981628 327.094849,279.391541 327.094849,260.377716 
	C315.525787,260.377716 304.310120,260.377716 292.528137,260.377716 
	C292.528137,278.961517 292.528137,297.686707 292.528137,316.999512 
	C283.867493,316.999512 275.754761,316.999512 267.159973,316.999329 
z"/>
<path fill="#37B4FD" opacity="1.000000" stroke="none" 
	d="
M204.096542,318.145935 
	C179.415985,321.420410 157.281052,317.889160 139.707535,298.345245 
	C145.418640,292.031799 150.874481,286.000519 156.709763,279.549805 
	C158.129410,280.892151 159.382919,282.125610 160.687073,283.302917 
	C170.892822,292.516083 182.833923,296.518097 196.522995,295.059479 
	C208.308426,293.803741 214.719742,284.682983 212.214691,273.113007 
	C210.958008,267.308807 207.019241,264.213470 201.731430,262.969818 
	C193.976364,261.145874 186.066681,259.991241 178.268982,258.334473 
	C155.698990,253.539001 144.325928,239.511337 145.238907,217.780029 
	C146.134064,196.473480 159.656250,182.108871 181.744064,179.081589 
	C197.229752,176.959167 212.403198,177.865921 226.467590,185.307495 
	C231.661087,188.055420 236.199738,192.040955 241.447388,195.752228 
	C235.350876,202.572418 229.963409,208.599396 224.332047,214.899216 
	C215.729752,206.050049 205.418533,201.644257 193.302643,202.139160 
	C189.873947,202.279221 186.287888,202.928314 183.122314,204.206573 
	C177.206650,206.595337 175.021942,211.613754 174.885666,217.811554 
	C174.750397,223.962372 176.949020,229.071594 182.876007,230.816299 
	C191.767105,233.433548 200.931808,235.161606 210.029114,237.029388 
	C228.010406,240.721191 239.687134,251.638657 241.906128,267.087250 
	C245.686447,293.405853 231.009354,313.425751 204.096542,318.145935 
z"/>
<path fill="#FCFCFC" opacity="1.000000" stroke="none" 
	d="
M352.774109,342.036194 
	C284.004578,342.037689 215.712631,342.037689 147.505188,342.037689 
	C145.875061,338.407196 147.630478,337.976227 150.477737,337.988159 
	C167.139877,338.057922 183.802475,338.022369 200.464905,338.022339 
	C249.952332,338.022339 299.439758,338.022339 348.927185,338.022339 
	C350.747314,338.022339 352.567474,338.022339 355.958923,338.022339 
	C354.725983,339.849670 353.988831,340.942200 352.774109,342.036194 
z"/>
<path fill="#E8E8E8" opacity="1.000000" stroke="none" 
	d="
M215.508972,357.404663 
	C224.178177,352.577057 230.659546,356.017914 230.877502,365.875702 
	C228.810379,365.875702 226.743225,365.875702 224.676056,365.875702 
	C222.518997,365.875702 220.361923,365.875702 218.167404,365.875702 
	C218.889755,370.234039 221.306259,371.354340 224.897675,369.372864 
	C226.440735,368.521545 228.175201,368.017181 230.606644,367.040161 
	C228.104889,373.471466 224.196365,375.482574 218.895447,374.003601 
	C214.191345,372.691193 211.462753,367.730316 212.820084,362.482697 
	C213.259995,360.781982 214.405960,359.263855 215.508972,357.404663 
z"/>
<path fill="#E8E8E8" opacity="1.000000" stroke="none" 
	d="
M193.047073,359.146545 
	C196.416611,355.002502 200.387222,354.053040 204.874252,355.996277 
	C208.906082,357.742340 210.241669,361.139038 209.942154,365.774963 
	C205.551834,365.774963 201.284134,365.774963 196.492035,365.774963 
	C199.731247,375.156342 205.211029,365.924347 208.966888,368.009552 
	C207.735580,372.882355 204.401657,374.989838 199.163528,374.209442 
	C194.251083,373.477570 190.990509,369.373779 191.472977,364.222382 
	C191.623764,362.612213 192.383591,361.059143 193.047073,359.146545 
z"/>
<path fill="#EFEFEF" opacity="1.000000" stroke="none" 
	d="
M260.268555,371.466217 
	C259.057098,372.797668 257.846527,373.694580 255.796921,375.213135 
	C255.796921,370.295776 256.148895,366.922455 255.651794,363.679321 
	C255.394516,362.000793 253.631989,360.553040 252.549530,359.001038 
	C251.331985,360.632965 249.402100,362.128113 249.056564,363.927490 
	C248.474243,366.959900 248.896927,370.185303 248.896927,373.724121 
	C247.316345,373.822418 245.950546,373.907379 244.341736,374.007416 
	C244.341736,365.574738 244.341736,357.491028 244.341736,349.119446 
	C245.742111,349.057190 247.008835,349.000916 248.646622,348.928131 
	C248.776108,351.377289 248.896194,353.648895 249.037323,356.318420 
	C250.140015,355.955963 251.102203,355.552643 252.104324,355.325348 
	C256.551483,354.316498 259.707611,356.474030 260.096588,361.055969 
	C260.377289,364.362274 260.227325,367.705139 260.268555,371.466217 
z"/>
<path fill="#EAEAEA" opacity="1.000000" stroke="none" 
	d="
M279.572144,373.341736 
	C275.956146,373.934845 272.422272,374.710114 269.135132,374.117218 
	C267.004425,373.732910 263.989716,371.581146 263.658936,369.797150 
	C263.340027,368.077301 265.545197,365.194244 267.398682,363.952606 
	C269.458435,362.572784 272.374451,362.471191 275.159241,361.750580 
	C271.611115,354.560486 267.835388,364.254028 264.247284,360.926910 
	C265.086853,356.550293 268.358856,355.093536 272.440887,355.175476 
	C276.691437,355.260773 279.315460,357.660706 279.621307,361.964478 
	C279.880310,365.609009 279.728760,369.282745 279.572144,373.341736 
M268.319702,369.964600 
	C272.395142,372.006226 274.209412,370.155029 275.038361,366.607635 
	C274.695831,366.058502 274.353271,365.509399 274.010742,364.960297 
	C271.996765,366.391388 269.982788,367.822479 268.319702,369.964600 
z"/>
<path fill="#EDEDED" opacity="1.000000" stroke="none" 
	d="
M322.214844,365.130829 
	C325.581818,363.826294 328.680603,362.777771 331.779358,361.729248 
	C331.907593,361.253113 332.035797,360.776947 332.164001,360.300781 
	C330.462433,360.027252 328.683075,359.314850 327.080353,359.598969 
	C325.349640,359.905823 323.784027,361.144226 321.873199,361.434662 
	C322.781189,356.234772 326.118347,354.772522 330.475220,355.257446 
	C334.777100,355.736298 336.829285,358.504150 336.928711,362.712585 
	C337.014374,366.339874 336.946472,369.970825 336.946472,373.524078 
	C333.262146,373.807037 329.849976,374.281067 326.437683,374.282166 
	C321.140503,374.283875 319.374176,370.629578 322.214844,365.130829 
M332.164612,367.119232 
	C330.814667,366.839050 329.270844,366.024048 328.167480,366.423981 
	C326.984680,366.852783 326.216248,368.424683 325.266968,369.497681 
	C326.740295,369.782349 328.260193,370.413483 329.669830,370.224121 
	C330.540527,370.107178 331.243347,368.740875 332.164612,367.119232 
z"/>
<path fill="#EDEDED" opacity="1.000000" stroke="none" 
	d="
M179.172577,359.230469 
	C179.621353,364.227448 179.927780,368.839630 180.239975,373.538727 
	C176.173141,373.810669 172.521652,374.578186 169.051086,374.081482 
	C167.114944,373.804382 164.710556,371.767700 163.886337,369.914886 
	C162.604156,367.032562 164.596573,364.820129 167.459122,363.861053 
	C169.940903,363.029572 172.520905,362.491302 175.315430,361.755524 
	C171.880142,354.540070 167.997208,364.392334 163.781036,360.049500 
	C166.064224,358.406677 168.042191,356.182251 170.475952,355.427399 
	C173.805939,354.394562 177.088745,355.425293 179.172577,359.230469 
M174.192902,369.321381 
	C174.542816,368.259003 174.892731,367.196625 175.242645,366.134247 
	C174.912537,365.827454 174.582443,365.520691 174.252350,365.213898 
	C172.219681,366.239838 170.172150,367.239441 168.192078,368.358459 
	C168.075958,368.424042 168.476883,369.944580 168.683731,369.956146 
	C170.325073,370.047974 171.977676,369.938171 174.192902,369.321381 
z"/>
<path fill="#F0F0F0" opacity="1.000000" stroke="none" 
	d="
M349.930328,355.105896 
	C354.987122,355.249908 356.684143,358.143860 356.818268,362.286499 
	C356.936127,365.926270 356.842926,369.572876 356.842926,373.651825 
	C355.411865,373.797363 354.050873,373.935791 352.123016,374.131866 
	C352.123016,370.144745 352.381805,366.505280 351.993378,362.936249 
	C351.841766,361.543213 350.234497,360.308624 349.290253,359.001831 
	C347.986816,360.212311 345.764496,361.285400 345.558990,362.660034 
	C345.025787,366.226471 345.379944,369.925568 345.379944,373.803986 
	C343.776886,373.878448 342.506927,373.937439 340.978363,374.008453 
	C340.978363,367.870331 340.978363,361.983093 340.978363,356.100098 
	C343.867371,355.768036 346.693542,355.443237 349.930328,355.105896 
z"/>
<path fill="#ECECEC" opacity="1.000000" stroke="none" 
	d="
M289.871155,366.158142 
	C286.192902,365.416504 282.693878,364.131531 283.589172,360.277039 
	C284.062195,358.240662 287.098328,355.860626 289.349548,355.380188 
	C293.489471,354.496613 297.058716,356.170471 298.344940,360.856567 
	C294.501953,363.893066 291.692413,355.466370 287.314850,361.056519 
	C289.738312,361.826874 291.765900,362.472351 293.794098,363.115906 
	C296.792175,364.067291 299.577209,365.314697 298.998474,369.196869 
	C298.466034,372.768890 295.832397,374.010101 292.584564,374.220306 
	C288.128906,374.508698 284.413391,373.439850 282.309052,367.181305 
	C284.832550,368.092041 286.422211,368.631500 287.980347,369.250244 
	C288.413208,369.422089 288.766052,370.099823 289.132690,370.081696 
	C290.790375,369.999725 292.439880,369.751495 294.092316,369.563141 
	C292.817352,368.453735 291.542419,367.344330 289.871155,366.158142 
z"/>
<path fill="#ECECEC" opacity="1.000000" stroke="none" 
	d="
M302.882629,370.992157 
	C300.542816,367.079468 303.396637,367.575623 305.206177,367.936768 
	C306.341461,368.163330 307.200714,369.921143 308.313049,370.078491 
	C309.859009,370.297241 311.526062,369.659821 313.141296,369.388916 
	C312.109467,368.411835 311.095184,367.414948 310.031555,366.473755 
	C309.809113,366.276855 309.347229,366.366638 309.093445,366.186523 
	C306.831848,364.581390 304.227509,363.230042 302.588165,361.129578 
	C302.147308,360.564697 304.505493,356.310333 305.849762,356.159210 
	C309.000916,355.804871 312.368896,356.710114 315.530029,357.552460 
	C316.389587,357.781494 316.825592,359.600159 318.201538,361.977203 
	C313.740906,360.699524 310.566437,359.790283 307.391998,358.881012 
	C307.164337,359.594757 306.936676,360.308502 306.709015,361.022247 
	C308.380219,361.663330 310.010406,362.460785 311.731354,362.912201 
	C315.072510,363.788605 318.541718,364.644012 317.974274,369.111084 
	C317.409271,373.558380 313.803314,374.585693 310.191803,374.185608 
	C307.754211,373.915558 305.465729,372.299225 302.882629,370.992157 
z"/>
<path fill="#ECECEC" opacity="1.000000" stroke="none" 
	d="
M155.179077,355.505249 
	C157.287506,357.109161 159.029739,358.592010 160.771973,360.074829 
	C160.485321,360.599121 160.198669,361.123383 159.912018,361.647675 
	C156.739761,360.729889 153.567505,359.812073 150.395248,358.894287 
	C150.160675,359.646057 149.926086,360.397827 149.691513,361.149597 
	C151.672211,361.795258 153.646255,362.462341 155.635178,363.081573 
	C158.616714,364.009918 161.477951,365.128418 161.010437,369.038452 
	C160.579727,372.640686 158.000854,373.888458 154.741272,374.216553 
	C149.765106,374.717468 147.169754,373.277954 144.192795,367.306915 
	C146.735764,368.113861 148.320099,368.595520 149.889832,369.120819 
	C151.383743,369.620758 152.835144,370.389252 154.361908,370.575775 
	C154.928589,370.645020 155.863480,369.487000 156.205978,368.703156 
	C156.338364,368.400177 155.402740,367.331787 154.762131,367.054199 
	C153.561188,366.533813 152.221970,366.330414 150.937973,366.004242 
	C147.856201,365.221313 144.997040,363.947144 145.403717,360.175446 
	C145.789185,356.600311 148.649719,355.434845 151.852737,355.144501 
	C152.824234,355.056458 153.825348,355.295166 155.179077,355.505249 
z"/>
<path fill="#F9F9F9" opacity="1.000000" stroke="none" 
	d="
M188.207001,360.470398 
	C188.201508,365.895691 188.143661,370.878784 188.208725,375.860291 
	C188.253296,379.272095 186.382584,380.699310 183.282684,380.721130 
	C182.299408,380.728058 181.311310,380.046387 180.325424,379.679810 
	C180.869919,378.725708 181.463348,377.795654 181.946976,376.811646 
	C182.606033,375.470673 183.656876,374.106354 183.708725,372.720947 
	C183.913147,367.259094 183.792542,361.785095 183.792542,356.254456 
	C188.496933,354.014404 188.310516,357.068207 188.207001,360.470398 
z"/>
<path fill="#E8E8E8" opacity="1.000000" stroke="none" 
	d="
M234.043381,353.192200 
	C233.518906,349.269928 234.960464,348.136841 238.288345,349.206482 
	C238.843018,357.283813 239.402176,365.426453 239.969635,373.690094 
	C235.078598,374.413513 234.093307,373.603485 234.050018,367.607361 
	C234.016495,362.961792 234.043350,358.315765 234.043381,353.192200 
z"/>
<path fill="#191919" opacity="1.000000" stroke="none" 
	d="
M268.144257,369.609070 
	C269.982788,367.822479 271.996765,366.391388 274.010742,364.960297 
	C274.353271,365.509399 274.695831,366.058502 275.038361,366.607635 
	C274.209412,370.155029 272.395142,372.006226 268.144257,369.609070 
z"/>
<path fill="#191919" opacity="1.000000" stroke="none" 
	d="
M332.093079,367.527344 
	C331.243347,368.740875 330.540527,370.107178 329.669830,370.224121 
	C328.260193,370.413483 326.740295,369.782349 325.266968,369.497681 
	C326.216248,368.424683 326.984680,366.852783 328.167480,366.423981 
	C329.270844,366.024048 330.814667,366.839050 332.093079,367.527344 
z"/>
<path fill="#191919" opacity="1.000000" stroke="none" 
	d="
M173.909866,369.605835 
	C171.977676,369.938171 170.325073,370.047974 168.683731,369.956146 
	C168.476883,369.944580 168.075958,368.424042 168.192078,368.358459 
	C170.172150,367.239441 172.219681,366.239838 174.252350,365.213898 
	C174.582443,365.520691 174.912537,365.827454 175.242645,366.134247 
	C174.892731,367.196625 174.542816,368.259003 173.909866,369.605835 
z"/>
</svg>